name Walk6.mot
datacolumns 19
datarows 17
range 2.37000000 2.45000000
endheader

                time	   L_ground_force_vx	   L_ground_force_vy	   L_ground_force_vz	   L_ground_force_px	   L_ground_force_py	   L_ground_force_pz	   R_ground_force_vx	   R_ground_force_vy	   R_ground_force_vz	   R_ground_force_px	   R_ground_force_py	   R_ground_force_pz	   L_ground_torque_x	   L_ground_torque_y	   L_ground_torque_z	   R_ground_torque_x	   R_ground_torque_y	   R_ground_torque_z	
          2.37000000	         15.25508525	        715.68017544	         32.79647599	         -0.17742720	          0.00000000	         -0.03437903	          0.00689767	          0.11110138	         -0.00142275	          0.00018971	          0.00000000	          0.00006463	          0.00000000	          0.74983419	          0.00000000	          0.00000000	         -0.00114630	          0.00000000	
          2.37500000	         18.14507852	        724.16776352	         33.57986588	         -0.17606470	          0.00000000	         -0.03432216	          0.00473356	          0.16265912	         -0.00150426	          0.00025054	          0.00000000	          0.00008459	          0.00000000	          0.70019339	          0.00000000	          0.00000000	         -0.00071692	          0.00000000	
          2.38000000	         21.23032516	        733.09826766	         34.34171522	         -0.17484156	          0.00000000	         -0.03425358	          0.00077510	          0.22299678	         -0.00144585	          0.00031449	          0.00000000	          0.00010530	          0.00000000	          0.65046440	          0.00000000	          0.00000000	          0.00004106	          0.00000000	
          2.38500000	         24.51953818	        742.40597690	         35.05230226	         -0.17375264	          0.00000000	         -0.03417336	         -0.00549322	          0.28958434	         -0.00117645	          0.00037542	          0.00000000	          0.00012459	          0.00000000	          0.59679593	          0.00000000	          0.00000000	          0.00121798	          0.00000000	
          2.39000000	         28.02652000	        752.02124638	         35.69171676	         -0.17279066	          0.00000000	         -0.03408517	         -0.01459044	          0.35770574	         -0.00061126	          0.00042415	          0.00000000	          0.00013932	          0.00000000	          0.53576032	          0.00000000	          0.00000000	          0.00290302	          0.00000000	
          2.39500000	         31.76449764	        761.87316832	         36.25107760	         -0.17194642	          0.00000000	         -0.03399238	         -0.02697706	          0.41981772	          0.00034546	          0.00044782	          0.00000000	          0.00014510	          0.00000000	          0.46530721	          0.00000000	          0.00000000	          0.00517263	          0.00000000	
          2.40000000	         35.73819547	        771.88975160	         36.73134031	         -0.17120996	          0.00000000	         -0.03389726	         -0.04296547	          0.46489856	          0.00179475	          0.00042951	          0.00000000	          0.00013622	          0.00000000	          0.38494634	          0.00000000	          0.00000000	          0.00807388	          0.00000000	
          2.40500000	         39.94112827	        781.99676058	         37.14202359	         -0.17057009	          0.00000000	         -0.03380237	         -0.06259863	          0.47786165	          0.00383339	          0.00034798	          0.00000000	          0.00010557	          0.00000000	          0.29601189	          0.00000000	          0.00000000	          0.01160229	          0.00000000	
          2.41000000	         44.35886272	        792.11469266	         37.49756440	         -0.17001416	          0.00000000	         -0.03370982	         -0.08549400	          0.43914229	          0.00653965	          0.00017792	          0.00000000	          0.00004475	          0.00000000	          0.20061549	          0.00000000	          0.00000000	          0.01567354	          0.00000000	
          2.41500000	         48.97311836	        802.15837861	         37.81368717	         -0.16952913	          0.00000000	         -0.03362095	         -0.11065277	          0.32460551	          0.00995322	         -0.00010920	          0.00000000	         -0.00005560	          0.00000000	          0.10111375	          0.00000000	          0.00000000	          0.02008917	          0.00000000	
          2.42000000	         53.76386213	        812.03520696	         38.10602820	         -0.16910152	          0.00000000	         -0.03353557	         -0.13623825	          0.10596622	          0.01404875	         -0.00054346	          0.00000000	         -0.00020522	          0.00000000	          0.00076552	          0.00000000	          0.00000000	          0.02449726	          0.00000000	
          2.42500000	         58.70924736	        821.64395341	         38.38830444	         -0.16871862	          0.00000000	         -0.03345162	         -0.15933373	         -0.24804407	          0.01870263	         -0.00115361	          0.00000000	         -0.00041324	          0.00000000	         -0.09690164	          0.00000000	          0.00000000	          0.02834994	          0.00000000	
          2.43000000	         63.78630427	        830.87806843	         38.67133850	         -0.16836884	          0.00000000	         -0.03336666	         -0.17569803	         -0.76948974	          0.02365324	         -0.00196281	          0.00000000	         -0.00068665	          0.00000000	         -0.18840308	          0.00000000	          0.00000000	          0.03086139	          0.00000000	
          2.43500000	         68.97217051	        839.62492083	         38.96331560	         -0.16804126	          0.00000000	         -0.03327969	         -0.17954769	         -1.48772183	          0.02845601	         -0.00298257	          0.00000000	         -0.00102832	          0.00000000	         -0.27063930	          0.00000000	          0.00000000	          0.03097162	          0.00000000	
          2.44000000	         74.24206313	        847.77225331	         39.27034166	         -0.16772693	          0.00000000	         -0.03319075	         -0.16340749	         -2.42424051	          0.03243594	         -0.00420494	          0.00000000	         -0.00143429	          0.00000000	         -0.34087265	          0.00000000	          0.00000000	          0.02732383	          0.00000000	
          2.44500000	         79.56911589	        855.21397597	         39.59694065	         -0.16741847	          0.00000000	         -0.03309973	         -0.11808607	         -3.58565182	          0.03464188	         -0.00559249	          0.00000000	         -0.00189047	          0.00000000	         -0.39658448	          0.00000000	          0.00000000	          0.01826576	          0.00000000	
          2.45000000	         84.92557050	        861.84928703	         39.94645693	         -0.16710882	          0.00000000	         -0.03300694	         -0.03284942	         -4.95452148	          0.03380948	         -0.00706650	          0.00000000	         -0.00236867	          0.00000000	         -0.43582240	          0.00000000	          0.00000000	          0.00188810	          0.00000000	
